HIERARCHY
ROOT Hips
{
	OFFSET 0.000000 0.000000 0.000000
	CHANNELS 6 Xposition Yposition Zposition Zrotation Yrotation Xrotation 
	JOINT LHipJoint
	{
		OFFSET 0.000000 0.000000 0.000000
		CHANNELS 3 Zrotation Yrotation Xrotation
		JOINT LeftUpLeg
		{
			OFFSET 1.363060 -1.794630 0.839290
			CHANNELS 3 Zrotation Yrotation Xrotation
			JOINT LeftLeg
			{
				OFFSET 2.448110 -6.726130 0.000000
				CHANNELS 3 Zrotation Yrotation Xrotation
				JOINT LeftFoot
				{
					OFFSET 2.562200 -7.039590 0.000000
					CHANNELS 3 Zrotation Yrotation Xrotation
					JOINT LeftToeBase
					{
						OFFSET 0.157640 -0.433110 2.322550
						CHANNELS 3 Zrotation Yrotation Xrotation
						End Site
						{
							OFFSET 0.000000 0.000000 0.000000
						}
					}
				}
			}
		}
	}
	JOINT RHipJoint
	{
		OFFSET 0.000000 0.000000 0.000000
		CHANNELS 3 Zrotation Yrotation Xrotation
		JOINT RightUpLeg
		{
			OFFSET -1.305520 -1.794630 0.839290
			CHANNELS 3 Zrotation Yrotation Xrotation
			JOINT RightLeg
			{
				OFFSET -2.542530 -6.985550 0.000000
				CHANNELS 3 Zrotation Yrotation Xrotation
				JOINT RightFoot
				{
					OFFSET -2.568260 -7.056230 0.000000
					CHANNELS 3 Zrotation Yrotation Xrotation
					JOINT RightToeBase
					{
						OFFSET -0.164730 -0.452590 2.363150
						CHANNELS 3 Zrotation Yrotation Xrotation
						End Site
						{
							OFFSET 0.000000 0.000000 0.000000
						}
					}
				}
			}
		}
	}
}
MOTION
Frames: 27
Frame Time: 0.008333
4.929259 16.900804 3.523469 -82.107207 -89.627673 82.005787 -10.275426 1.449656 1.449855 -8.756518 16.530145 -25.567433 -2.205135 -0.186226 12.205474 0.697759 5.948931 4.468612 1.409600 -0.000001 -34.298000 11.861970 -3.011480 -1.851826 -6.906174 -24.312189 -9.968698 -0.244853 -3.118086 47.333909 -0.481997 6.269845 17.549416 2.873200 -0.000000 -103.875000
4.825812 16.866278 3.544773 -86.473112 -89.783668 86.422752 -10.105461 1.561870 1.422612 -9.182802 16.764213 -26.461475 -2.221605 -0.049499 14.198671 0.685412 5.662879 3.995832 1.291900 -0.000000 -33.222000 12.074225 -2.778515 -1.840699 -7.443265 -24.747056 -11.459020 -0.423523 -3.195403 49.866276 -0.655816 5.937736 19.297867 2.998400 0.000001 -102.447000
4.724911 16.834279 3.565115 -88.948619 -89.924967 88.981923 -9.967773 1.645592 1.418900 -9.541456 16.846719 -27.328483 -2.224543 0.074578 16.182149 0.692211 5.498096 3.261509 1.177400 0.000001 -32.382000 12.231452 -2.547499 -1.827463 -7.825794 -25.099391 -12.972483 -0.581466 -3.274179 52.308216 -0.847578 5.161728 20.824319 2.881700 0.000001 -100.426000
4.627010 16.805194 3.584905 89.087161 -89.971301 -88.951154 -9.852829 1.707023 1.437940 -9.806680 16.767766 -28.116423 -2.212987 0.185152 18.093003 0.720932 5.479172 2.326606 1.072900 0.000000 -31.840400 12.347725 -2.316612 -1.819624 -8.050937 -25.376306 -14.476399 -0.722173 -3.353770 54.626758 -1.052323 3.906820 22.016126 2.471500 0.000000 -97.978100
4.532342 16.779334 3.604738 86.913122 -89.919296 -86.668286 -9.763070 1.749874 1.474209 -9.965868 16.562444 -28.807582 -2.189252 0.284254 19.903880 0.768939 5.581203 1.248520 0.972200 0.000000 -31.564600 12.424823 -2.088340 -1.822967 -8.116548 -25.591851 -15.941395 -0.849526 -3.432346 56.790421 -1.267141 2.172891 22.785462 1.753300 -0.000000 -95.194300
4.440848 16.757151 3.624555 84.679508 -89.912342 -84.328195 -9.698921 1.775807 1.522483 -10.021702 16.248168 -29.356103 -2.154541 0.368912 21.541705 0.835334 5.806461 0.112742 0.877300 -0.000000 -31.590300 12.467774 -1.867822 -1.838592 -8.044355 -25.742088 -17.341128 -0.965567 -3.510587 58.764443 -1.489512 0.016068 23.064320 0.765000 0.000000 -92.294400
4.352594 16.738744 3.644699 81.589891 -89.955613 -81.144783 -9.662986 1.791848 1.576931 -9.979256 15.885222 -29.778295 -2.114490 0.443767 23.005426 0.912847 6.098019 -1.030636 0.779200 -0.000000 -31.783800 12.476467 -1.655357 -1.867558 -7.838240 -25.838923 -18.655523 -1.073191 -3.582674 60.520157 -1.716666 -2.462891 22.817983 -0.409000 0.000000 -89.269600
4.267179 16.724477 3.664771 -102.948543 -89.968219 103.472250 -9.653659 1.807948 1.636574 -9.857894 15.490412 -30.054304 -2.073204 0.509820 24.243617 0.997908 6.442609 -2.107767 0.682300 -0.000000 -32.140000 12.455351 -1.446254 -1.910272 -7.534305 -25.888501 -19.862528 -1.172927 -3.643012 62.025296 -1.944150 -5.108682 22.056036 -1.642200 -0.000000 -86.247500
4.184225 16.714320 3.684837 -110.039125 -89.870814 110.625756 -9.682336 1.831820 1.698573 -9.673523 15.121536 -30.216586 -2.037302 0.573353 25.267890 1.081432 6.780260 -3.086757 0.584199 -0.000000 -32.512900 12.393963 -1.239220 -1.962963 -7.143923 -25.892032 -20.954411 -1.264345 -3.682698 63.255641 -2.165949 -7.759304 20.820292 -2.804100 -0.000000 -83.260201
4.103232 16.708482 3.704242 -120.693759 -89.797850 121.329744 -9.767391 1.867127 1.763759 -9.462152 14.789000 -30.261046 -2.010467 0.636276 26.050103 1.158529 7.093122 -3.922305 0.492200 0.000000 -32.876800 12.275458 -1.033295 -2.024394 -6.717735 -25.858919 -21.922755 -1.344365 -3.697196 64.195206 -2.372338 -10.232560 19.187709 -3.768700 -0.000000 -80.286901
4.023843 16.706892 3.722737 -135.581085 -89.816415 136.255815 -9.951610 1.891520 1.829476 -9.254398 14.511571 -30.211463 -1.990829 0.695570 26.609303 1.220351 7.334622 -4.601194 0.409100 0.000000 -33.148500 12.058463 -0.856534 -2.089455 -6.286928 -25.809158 -22.770230 -1.403424 -3.692188 64.825665 -2.553957 -12.393751 17.269452 -4.460000 0.000000 -77.456700
3.945385 16.709582 3.739848 27.319324 -89.967969 -26.608339 -10.239443 1.850165 1.883781 -9.067485 14.270733 -30.070049 -1.963668 0.728113 26.968861 1.257434 7.465652 -5.111111 0.338900 -0.000000 -33.306200 11.741730 -0.779758 -2.149200 -5.872735 -25.795270 -23.498137 -1.419479 -3.702267 65.123767 -2.700799 -14.141311 15.191822 -4.847599 -0.000000 -74.869599
3.867649 16.716503 3.754811 12.624138 -89.528209 -11.880201 -10.511107 1.736544 1.913459 -8.876100 14.052539 -29.840457 -1.921544 0.715377 27.154932 1.265025 7.462976 -5.452090 0.285300 -0.000001 -33.367400 11.445906 -0.825235 -2.193100 -5.455862 -25.852751 -24.099118 -1.379232 -3.751278 65.076827 -2.804094 -15.409703 13.062957 -4.940200 0.000000 -72.527500
3.789979 16.727585 3.767201 2.389544 -88.983757 -1.612461 -10.677156 1.625197 1.928054 -8.653801 13.886920 -29.555100 -1.882239 0.678288 27.182432 1.247513 7.329270 -5.649058 0.247600 -0.000001 -33.348000 11.256349 -0.912024 -2.217964 -5.014127 -25.943292 -24.568103 -1.298296 -3.802944 64.695199 -2.860114 -16.192042 10.986595 -4.791300 0.000000 -70.569100
3.712326 16.742619 3.776580 -3.916923 -88.434958 4.725403 -10.760941 1.561715 1.943248 -8.418324 13.783338 -29.232017 -1.859982 0.639773 27.050712 1.211850 7.090051 -5.726044 0.224200 0.000000 -33.287400 11.146466 -0.978568 -2.228349 -4.572920 -26.035609 -24.911034 -1.192834 -3.822813 64.005044 -2.866643 -16.510004 9.038335 -4.469400 0.000000 -69.087500
3.634401 16.761416 3.782547 -7.463871 -87.904331 8.307010 -10.804924 1.545121 1.967267 -8.194289 13.721044 -28.874092 -1.855593 0.604894 26.765774 1.163251 6.773434 -5.703161 0.212800 -0.000000 -33.230800 11.072850 -1.017865 -2.227226 -4.161227 -26.130825 -25.138572 -1.067090 -3.805044 63.028122 -2.824269 -16.408688 7.266174 -4.043200 -0.000000 -68.119401
3.556091 16.783659 3.785159 -9.470593 -87.375038 10.353992 -10.833271 1.558312 2.002202 -7.980691 13.679112 -28.485519 -1.863684 0.570628 26.349984 1.104947 6.397260 -5.604584 0.209300 0.000000 -33.218000 11.011436 -1.045376 -2.215416 -3.776702 -26.236315 -25.256185 -0.920342 -3.755687 61.777254 -2.738154 -15.959943 5.694718 -3.573700 0.000000 -67.716300
3.477360 16.808992 3.784262 -10.506376 -86.838207 11.438450 -10.852685 1.591873 2.050647 -7.779443 13.629608 -28.064528 -1.879612 0.534013 25.815802 1.041949 5.993075 -5.447037 0.211700 -0.000000 -33.286200 10.955546 -1.068344 -2.193661 -3.421317 -26.357335 -25.271245 -0.753304 -3.680347 60.272292 -2.615323 -15.235895 4.316267 -3.101700 -0.000001 -67.791100
3.398271 16.836949 3.780022 -11.039317 -86.285077 12.028972 -10.866865 1.637271 2.113786 -7.581028 13.553727 -27.611220 -1.898691 0.492762 25.178458 0.978316 5.586849 -5.245850 0.218000 -0.000000 -33.464300 10.901650 -1.094098 -2.162611 -3.083927 -26.491728 -25.185382 -0.567020 -3.583302 58.530571 -2.465409 -14.317031 3.107077 -2.654300 -0.000000 -68.246300
3.318717 16.867033 3.772438 -11.206514 -85.717312 12.267760 -10.874997 1.691755 2.194314 -7.390950 13.431241 -27.130715 -1.918175 0.445838 24.449546 0.918403 5.208457 -5.010345 0.227700 0.000000 -33.744900 10.850140 -1.123034 -2.121319 -2.765167 -26.636577 -25.011199 -0.363748 -3.467442 56.579477 -2.298241 -13.274739 2.032324 -2.244800 -0.000000 -68.937500
3.238924 16.898710 3.762056 -11.314565 -85.130159 12.456701 -10.881070 1.748566 2.290492 -7.187697 13.260214 -26.620823 -1.934085 0.392489 23.640769 0.863812 4.870390 -4.746396 0.240400 0.000000 -34.146100 10.797738 -1.161167 -2.070746 -2.445498 -26.778516 -24.738491 -0.145383 -3.334051 54.430780 -2.124963 -12.186133 1.062773 -1.882400 -0.000000 -69.749900
3.158881 16.931326 3.748967 -11.342124 -84.530940 12.576893 -10.883775 1.807668 2.402495 -6.979046 13.037070 -26.089867 -1.945686 0.333255 22.763723 0.816267 4.586623 -4.456281 0.256500 0.000000 -34.625600 10.745660 -1.206130 -2.009037 -2.129358 -26.909354 -24.377525 0.084296 -3.183987 52.113177 -1.954501 -11.107260 0.175422 -1.569300 -0.000000 -70.555401
3.078758 16.964291 3.733507 -11.350705 -83.924080 12.686767 -10.884241 1.867272 2.527440 -6.760958 12.769426 -25.540492 -1.952049 0.268932 21.829164 0.775693 4.358974 -4.139553 0.276400 0.000001 -35.158900 10.693597 -1.258161 -1.935558 -1.814028 -27.015974 -23.925867 0.320692 -3.017452 49.647599 -1.795218 -10.091056 -0.634739 -1.307400 0.000000 -71.274600
2.998509 16.997023 3.715916 -11.339840 -83.317439 12.784645 -10.882626 1.927172 2.661943 -6.535377 12.469135 -24.977307 -1.953569 0.200762 20.848390 0.741251 4.183300 -3.795071 0.300100 0.000000 -35.709900 10.642495 -1.316019 -1.849161 -1.503213 -27.086425 -23.384864 0.557659 -2.834827 47.059056 -1.653398 -9.177831 -1.355876 -1.097100 0.000000 -71.858999
2.918443 17.028854 3.696399 -11.297378 -82.720146 12.852521 -10.878900 1.987398 2.801464 -6.306934 12.151407 -24.404405 -1.951260 0.130428 19.835099 0.711549 4.050745 -3.422714 0.327700 -0.000000 -36.244001 10.593973 -1.377853 -1.749321 -1.203561 -27.109860 -22.757946 0.787515 -2.637316 44.377376 -1.533378 -8.398447 -1.961785 -0.937700 -0.000001 -72.293400
2.838494 17.059249 3.674967 -11.177413 -82.142842 12.842992 -10.871956 2.049330 2.941605 -6.086254 11.832872 -23.827160 -1.947378 0.059753 18.806504 0.684947 3.948953 -3.027373 0.358100 0.000000 -36.716300 10.550935 -1.441354 -1.636371 -0.927147 -27.083867 -22.054284 1.002090 -2.427629 41.640852 -1.436824 -7.770126 -2.419072 -0.827500 0.000000 -72.584200
2.759056 17.087722 3.651838 -11.006399 -81.595485 12.775327 -10.863102 2.111722 3.077355 -5.870782 11.526483 -23.245870 -1.942361 -0.009596 17.775902 0.660386 3.869745 -2.611337 0.390699 -0.000000 -37.150001 10.514378 -1.506724 -1.510687 -0.674415 -26.990152 -21.276504 1.192618 -2.208914 38.881756 -1.365790 -7.316303 -2.692996 -0.766200 -0.000000 -72.768200
